<svg id="bf7783db-4c04-448a-89c3-5ba92096cf10" data-name="Layer 1" xmlns="http://www.w3.org/2000/svg" viewBox="0 0 400 200"><title>Category</title><path d="M198.57,148.24,140,121.2,96.87,141.3a.89.89,0,0,0,0,1.65l101.69,47a1.08,1.08,0,0,0,.88,0l103.67-47a.89.89,0,0,0,0-1.65L259.58,121l-60.13,27.24A1.08,1.08,0,0,1,198.57,148.24Z" fill="none" stroke="#000" stroke-miterlimit="10" stroke-width="18"/><path d="M303.13,99.63l-43.55-20.3-60.13,27.24a1,1,0,0,1-.88,0L140,79.53,96.87,99.63a.89.89,0,0,0,0,1.65L140,121.2l58.56,27a1.08,1.08,0,0,0,.88,0L259.58,121l43.54-19.72A.89.89,0,0,0,303.13,99.63Z" fill="none" stroke="#000" stroke-miterlimit="10" stroke-width="18"/><path d="M198.57,106.57a1,1,0,0,0,.88,0l60.13-27.24,43.54-19.72a.89.89,0,0,0,0-1.65L200.46,10.1a1.09,1.09,0,0,0-.9,0L96.87,58a.89.89,0,0,0,0,1.65L140,79.53Z" fill="none" stroke="#000" stroke-miterlimit="10" stroke-width="18"/></svg>