<svg id="af9463fc-3767-4c59-86d8-d65451ce47d3" data-name="Layer 1" xmlns="http://www.w3.org/2000/svg" viewBox="0 0 200 200">
  <title>Content</title>
  <path d="M182,18V182H18V18H182m6-18H12A12,12,0,0,0,0,12V188a12,12,0,0,0,12,12H188a12,12,0,0,0,12-12V12A12,12,0,0,0,188,0Z"/>
  <rect x="30" y="77.3" width="140" height="12" rx="6"/>
  <rect x="30" y="44" width="140" height="12" rx="6"/>
  <rect x="30" y="110.6" width="140" height="12" rx="6"/>
  <rect x="30" y="144" width="140" height="12" rx="6"/>
</svg>
