<svg id="b1ae8044-4ce3-41ad-be25-39dd2dff021d" data-name="Layer 1" xmlns="http://www.w3.org/2000/svg" viewBox="0 0 200 200"><title>EditThis</title><path d="M4.79,198.43l46.92-7.12a3,3,0,0,0,1.67-5.09L13.59,146.44a3,3,0,0,0-5.09,1.67L1.38,195A3,3,0,0,0,4.79,198.43Z" fill="#3a8cdc"/><rect x="56.25" y="45.37" width="65" height="132" rx="1" transform="translate(72.76 252.88) rotate(-135)" fill="#3a8cdc"/><path d="M129,17.69h63a1,1,0,0,1,1,1V55.25a8,8,0,0,1-8,8H136a8,8,0,0,1-8-8V18.69a1,1,0,0,1,1-1Z" transform="translate(245.42 182.6) rotate(-135)" fill="#3a8cdc"/></svg>