<svg id="e2ee355f-a6f2-4ee4-a0e2-978f2632f690" data-name="Layer 2" xmlns="http://www.w3.org/2000/svg" viewBox="0 0 200 200"><title>Link</title><path d="M-18.3,227.12V-12.79H221.63V227.12Zm140.49-71.57c.48.1.73.19,1,.21,2.46.16,4.92.41,7.38.45,8.38.13,16.77.2,25.16.27,2.09,0,4.19,0,6.28-.14a30,30,0,0,0,12.91-4.49,56,56,0,0,0,9.85-7.42,44.61,44.61,0,0,0,10.76-15.55,59.69,59.69,0,0,0,2.86-8.85,28.73,28.73,0,0,0,.37-5.81c.05-2-.06-4.06.05-6.09.29-5.42.26-10.83-1.29-16.09a47.17,47.17,0,0,0-6.39-13.13,58.78,58.78,0,0,0-6.94-8.4,43.14,43.14,0,0,0-14.09-9.07c-4.59-1.93-9.49-1.83-14.3-2.06-7.16-.33-14.33-.4-21.49-.51-4.9-.07-9.8,0-14.69,0-2,0-4,.13-6,.14-2.53,0-5.07-.17-7.6,0-4.6.25-8.83,2-12.75,4.2a59.24,59.24,0,0,0-9.92,7.11,42.39,42.39,0,0,0-9.6,12.87,32.89,32.89,0,0,0-3.5,12.64c-.32,4.11-.39,8.26-.41,12.39a14.13,14.13,0,0,0,.71,4.16,4.1,4.1,0,0,0,3.62,3.18q7.8.45,15.61.5c3.23,0,5.1-1.6,5.55-4.82s.48-6.29.74-9.43a51.16,51.16,0,0,1,.6-5.67c.64-3.35,3.21-5.43,5.5-7.61A18.27,18.27,0,0,1,105.78,86a6,6,0,0,1,2.61-.85c4.4-.09,8.81-.09,13.22-.06,8,.07,16,.14,23.93.28,4.69.09,9.39.27,14.07.51a6,6,0,0,1,3.08.84,52.4,52.4,0,0,1,5.43,4.79c3.44,3.46,4.72,7.87,4.8,12.59a107.09,107.09,0,0,1-.48,10.89,13.77,13.77,0,0,1-3.19,7.86,69.74,69.74,0,0,1-5.17,5.29,7.28,7.28,0,0,1-4.68,2c-1.56.09-3.13.22-4.69.21-4.09,0-8.17-.13-12.25-.24-.67,0-1,.12-1.21.83a40.2,40.2,0,0,1-8.75,15.35c-2,2.17-4.19,4.13-6.36,6.11C125,153.53,123.63,154.44,122.19,155.55ZM81.06,58.78a12.05,12.05,0,0,0-1.2-.2c-7.24-.23-14.48-.5-21.72-.66-3-.07-6.08.16-9.12.12-3.54,0-7.1-.39-10.57.55-5.72,1.55-11.28,3.46-15.66,7.74-.7.68-1.35,1.41-2.09,2-4.83,4.11-8.91,8.79-11.32,14.75-.56,1.39-1.18,2.75-1.66,4.16-1,3.13-2.15,6.24-2.2,9.62,0,2.75-.39,5.49-.41,8.24,0,5.17-.28,10.35.65,15.48a43,43,0,0,0,4.9,12.57,40.1,40.1,0,0,0,8.55,10.65,76.89,76.89,0,0,0,9.16,6.56,25.82,25.82,0,0,0,11.49,4.12c3.77.4,7.57.55,11.36.67,5.54.17,11.09.26,16.63.31q10.22.09,20.43,0c3.32,0,6.65-.09,10-.34,4.87-.36,9.21-2.5,13.25-5a47.42,47.42,0,0,0,9.34-7.48,44.18,44.18,0,0,0,11.29-19.65c1.61-6.1,1.31-12.32,1.07-18.5-.14-3.68-2.3-5.79-5.42-6-1.57-.13-3.14-.24-4.71-.26-3.12,0-6.25.1-9.36-.06-2.48-.13-6.07,2.79-6.2,5.76q-.21,4.91-.49,9.81c-.15,2.59-.35,5.22-1.88,7.43a25.46,25.46,0,0,1-6.68,6.81,6.1,6.1,0,0,1-3.08,1.13c-5.74.1-11.49.07-17.24,0-6.68-.05-13.36-.15-20-.25-4.45-.06-8.9-.08-13.34-.29a11.46,11.46,0,0,1-5-1.13A21.74,21.74,0,0,1,35,123.42a11.19,11.19,0,0,1-3.31-6,61.28,61.28,0,0,1-.55-8.23c0-2.91.31-5.83.43-8.74A17.47,17.47,0,0,1,36,89.37c3.11-3.57,6.63-5.81,11.67-5.36,4,.36,8.09,0,12.13.13a2.28,2.28,0,0,0,2.54-1.75,40.19,40.19,0,0,1,7.47-13.06c1.91-2.1,3.75-4.27,5.79-6.23C77.17,61.58,79,60.36,81.06,58.78Z" fill="#fff"/><path d="M122.19,155.55c1.44-1.11,2.77-2,4-3.09,2.17-2,4.39-3.94,6.36-6.11A40.2,40.2,0,0,0,141.25,131c.21-.71.54-.84,1.21-.83,4.08.11,8.16.2,12.25.24,1.56,0,3.13-.12,4.69-.21a7.28,7.28,0,0,0,4.68-2,69.74,69.74,0,0,0,5.17-5.29,13.77,13.77,0,0,0,3.19-7.86,107.09,107.09,0,0,0,.48-10.89c-.08-4.72-1.36-9.13-4.8-12.59a52.4,52.4,0,0,0-5.43-4.79,6,6,0,0,0-3.08-.84c-4.68-.24-9.38-.42-14.07-.51-8-.14-15.95-.21-23.93-.28-4.41,0-8.82,0-13.22.06a6,6,0,0,0-2.61.85,18.27,18.27,0,0,0-3.58,2.48c-2.29,2.18-4.86,4.26-5.5,7.61a51.16,51.16,0,0,0-.6,5.67c-.26,3.14-.29,6.32-.74,9.43S93,116,89.81,116q-7.8,0-15.61-.5a4.1,4.1,0,0,1-3.62-3.18,14.13,14.13,0,0,1-.71-4.16c0-4.13.09-8.28.41-12.39a32.89,32.89,0,0,1,3.5-12.64,42.39,42.39,0,0,1,9.6-12.87,59.24,59.24,0,0,1,9.92-7.11c3.92-2.18,8.15-4,12.75-4.2,2.53-.14,5.07,0,7.6,0,2,0,4-.13,6-.14,4.89,0,9.79-.06,14.69,0,7.16.11,14.33.18,21.49.51,4.81.23,9.71.13,14.3,2.06a43.14,43.14,0,0,1,14.09,9.07,58.78,58.78,0,0,1,6.94,8.4A47.17,47.17,0,0,1,197.51,92c1.55,5.26,1.58,10.67,1.29,16.09-.11,2,0,4.06-.05,6.09a28.73,28.73,0,0,1-.37,5.81,59.69,59.69,0,0,1-2.86,8.85,44.61,44.61,0,0,1-10.76,15.55,56,56,0,0,1-9.85,7.42A30,30,0,0,1,162,156.34c-2.09.16-4.19.16-6.28.14-8.39-.07-16.78-.14-25.16-.27-2.46,0-4.92-.29-7.38-.45C122.92,155.74,122.67,155.65,122.19,155.55Z"/><path d="M81.06,58.78c-2,1.58-3.89,2.8-5.48,4.32-2,2-3.88,4.13-5.79,6.23a40.19,40.19,0,0,0-7.47,13.06,2.28,2.28,0,0,1-2.54,1.75c-4-.12-8.11.23-12.13-.13-5-.45-8.56,1.79-11.67,5.36a17.47,17.47,0,0,0-4.41,11.11c-.12,2.91-.44,5.83-.43,8.74a61.28,61.28,0,0,0,.55,8.23,11.19,11.19,0,0,0,3.31,6,21.74,21.74,0,0,0,4.74,4.12,11.46,11.46,0,0,0,5,1.13c4.44.21,8.89.23,13.34.29,6.69.1,13.37.2,20,.25,5.75,0,11.5.07,17.24,0a6.1,6.1,0,0,0,3.08-1.13,25.46,25.46,0,0,0,6.68-6.81c1.53-2.21,1.73-4.84,1.88-7.43q.28-4.91.49-9.81c.13-3,3.72-5.89,6.2-5.76,3.11.16,6.24,0,9.36.06,1.57,0,3.14.13,4.71.26,3.12.26,5.28,2.37,5.42,6,.24,6.18.54,12.4-1.07,18.5a44.18,44.18,0,0,1-11.29,19.65,47.42,47.42,0,0,1-9.34,7.48c-4,2.46-8.38,4.6-13.25,5-3.31.25-6.64.33-10,.34q-10.22.06-20.43,0c-5.54-.05-11.09-.14-16.63-.31-3.79-.12-7.59-.27-11.36-.67a25.82,25.82,0,0,1-11.49-4.12,76.89,76.89,0,0,1-9.16-6.56,40.1,40.1,0,0,1-8.55-10.65,43,43,0,0,1-4.9-12.57c-.93-5.13-.69-10.31-.65-15.48,0-2.75.37-5.49.41-8.24.05-3.38,1.15-6.49,2.2-9.62.48-1.41,1.1-2.77,1.66-4.16,2.41-6,6.49-10.64,11.32-14.75.74-.63,1.39-1.36,2.09-2,4.38-4.28,9.94-6.19,15.66-7.74,3.47-.94,7-.6,10.57-.55,3,0,6.08-.19,9.12-.12,7.24.16,14.48.43,21.72.66A12.05,12.05,0,0,1,81.06,58.78Z"/></svg>