<svg xmlns="http://www.w3.org/2000/svg" width="157" height="198.01" viewBox="0 0 157 198.01"><title>Lock</title><rect x="28" y="150.01" width="100" height="18" rx="9" fill="#fff"/><path d="M161,81H40A18.05,18.05,0,0,0,22,99v82a18.05,18.05,0,0,0,18,18H161a18.05,18.05,0,0,0,18-18V99A18.05,18.05,0,0,0,161,81Zm-20,88H59a9,9,0,0,1,0-18h82a9,9,0,0,1,0,18Zm0-40H59a9,9,0,0,1,0-18h82a9,9,0,0,1,0,18Z" transform="translate(-22 -0.99)"/><path d="M61,83V45c3.31-19.73,20.49-34.15,40-34a40.61,40.61,0,0,1,39,32V84a61.4,61.4,0,0,1,2,7" transform="translate(-22 -0.99)" fill="none" stroke="#000" stroke-miterlimit="10" stroke-width="20"/></svg>