<?xml version="1.0" encoding="utf-8"?>
<!-- Generator: Adobe Illustrator 25.3.1, SVG Export Plug-In . SVG Version: 6.00 Build 0)  -->
<svg version="1.1" id="bf7783db-4c04-448a-89c3-5ba92096cf10"
	 xmlns="http://www.w3.org/2000/svg" xmlns:xlink="http://www.w3.org/1999/xlink" x="0px" y="0px" viewBox="0 0 200 200"
	 style="enable-background:new 0 0 200 200;" xml:space="preserve">
<style type="text/css">
	.st0{fill:none;stroke:#000000;stroke-width:18;stroke-miterlimit:10;}
</style>
<path class="st0" d="M98.8,142.6l-50.4-23.3l-37.1,17.3c-0.4,0.2-0.6,0.6-0.4,1c0.1,0.2,0.2,0.3,0.4,0.4l87.5,40.4
	c0.2,0.1,0.5,0.1,0.8,0l89.2-40.4c0.4-0.2,0.6-0.6,0.4-1c-0.1-0.2-0.2-0.3-0.4-0.4l-37.5-17.5l-51.7,23.4
	C99.3,142.7,99,142.7,98.8,142.6z"/>
<path class="st0" d="M188.7,100.7l-37.5-17.5l-51.7,23.4c-0.2,0.1-0.5,0.1-0.8,0L48.4,83.4l-37.1,17.3c-0.4,0.2-0.6,0.6-0.4,1
	c0.1,0.2,0.2,0.3,0.4,0.4l37.1,17.1l50.4,23.2c0.2,0.1,0.5,0.1,0.8,0l51.8-23.4l37.5-17c0.4-0.2,0.6-0.6,0.4-1
	C189.1,101,188.9,100.8,188.7,100.7z"/>
<path class="st0" d="M98.8,106.7c0.2,0.1,0.5,0.1,0.8,0l51.7-23.4l37.5-17c0.4-0.2,0.6-0.6,0.4-1c-0.1-0.2-0.2-0.3-0.4-0.4
	l-88.3-41.2c-0.2-0.1-0.5-0.1-0.8,0L11.3,64.9c-0.4,0.2-0.6,0.6-0.4,1c0.1,0.2,0.2,0.3,0.4,0.4l37.1,17.1L98.8,106.7z"/>
</svg>
