<svg id="f480651e-4780-4752-9245-6b9771882308" data-name="Layer 1" xmlns="http://www.w3.org/2000/svg" viewBox="0 0 200 200"><title>Trash</title><path d="M38.22,49.44H162.08a0,0,0,0,1,0,0v129.7a10,10,0,0,1-10,10H48.22a10,10,0,0,1-10-10V49.44A0,0,0,0,1,38.22,49.44Z" fill="none" stroke="#000" stroke-miterlimit="10" stroke-width="12"/><rect x="12.3" y="35.04" width="175.7" height="17.28" rx="4.24"/><path d="M64.15,40.8V35S67,12,72.79,12h53.28c5.76,0,8.64,23,8.64,23V40.8" fill="none" stroke="#000" stroke-miterlimit="10" stroke-width="12"/><rect x="59.83" y="76.81" width="17.28" height="80.65" rx="3.2"/><rect x="91.51" y="76.81" width="17.28" height="80.65" rx="3.2"/><rect x="123.19" y="76.81" width="17.28" height="80.65" rx="3.2"/></svg>