<svg id="b16050c5-6792-4389-b58a-71e911dba06e" data-name="Layer 1" xmlns="http://www.w3.org/2000/svg" viewBox="0 0 400 200"><title>Twitter</title><path d="M320.19,26.05a98.81,98.81,0,0,1-28.32,7.76A49.49,49.49,0,0,0,313.55,6.52a98.46,98.46,0,0,1-31.32,12,49.34,49.34,0,0,0-85.3,33.77,50.12,50.12,0,0,0,1.27,11.22A140,140,0,0,1,96.55,11.94a49.38,49.38,0,0,0,15.27,65.84,49.08,49.08,0,0,1-22.34-6.17v.64A49.34,49.34,0,0,0,129,120.61a50.08,50.08,0,0,1-22.27.84,49.32,49.32,0,0,0,46.07,34.24,99,99,0,0,1-61.25,21.12,99.76,99.76,0,0,1-11.78-.69,139.46,139.46,0,0,0,75.59,22.16c90.72,0,140.32-75.14,140.32-140.31,0-2.12-.05-4.26-.15-6.38a99.9,99.9,0,0,0,24.59-25.51Z"/></svg>