<svg xmlns="http://www.w3.org/2000/svg" width="157" height="198" viewBox="0 0 157 198"><title>UnLock</title><path d="M61,47.44V45c3.31-19.73,20.49-34.15,40-34a40.6,40.6,0,0,1,39,32V84c.47,1.32.95,2.81,1.39,4.45" transform="translate(-22 -1)" fill="none" stroke="#000" stroke-miterlimit="10" stroke-width="20"/><rect x="28" y="150" width="100" height="18" rx="9" fill="#fff"/><path d="M161,81H40A18.05,18.05,0,0,0,22,99v82a18.05,18.05,0,0,0,18,18H161a18.05,18.05,0,0,0,18-18V99A18.05,18.05,0,0,0,161,81Zm-20,88H59a9,9,0,0,1,0-18h82a9,9,0,0,1,0,18Zm0-40H59a9,9,0,0,1,0-18h82a9,9,0,0,1,0,18Z" transform="translate(-22 -1)"/></svg>