<?xml version="1.0" standalone="no"?>
<!DOCTYPE svg PUBLIC "-//W3C//DTD SVG 20010904//EN"
 "http://www.w3.org/TR/2001/REC-SVG-20010904/DTD/svg10.dtd">
<svg version="1.0" xmlns="http://www.w3.org/2000/svg"
 width="700.000000pt" height="700.000000pt" viewBox="0 0 700.000000 700.000000"
 preserveAspectRatio="xMidYMid meet">
<metadata>
Created by potrace 1.14, written by Peter Selinger 2001-2017
</metadata>
<g transform="translate(0.000000,700.000000) scale(0.100000,-0.100000)"
fill="#000000" stroke="none">
<path d="M3110 6653 c-51 -4 -221 -24 -244 -29 -11 -2 -36 -6 -56 -9 -160 -24
-422 -98 -617 -175 -595 -236 -1119 -629 -1441 -1083 -13 -17 -54 -74 -92
-126 -131 -180 -254 -410 -326 -607 -20 -54 -37 -107 -39 -116 -6 -30 -46
-172 -62 -218 -8 -25 -16 -52 -19 -60 -2 -8 -14 -56 -28 -106 -14 -49 -28
-106 -31 -125 -3 -18 -8 -41 -10 -49 -14 -50 -43 -266 -52 -390 -12 -158 -6
-410 13 -545 16 -117 35 -222 64 -343 12 -51 23 -99 24 -105 12 -58 83 -300
114 -387 100 -287 256 -557 520 -895 404 -519 933 -845 1492 -919 83 -11 154
-10 146 3 -10 15 44 19 121 9 86 -12 117 1 128 52 4 16 11 30 17 30 6 0 8 8 6
18 -5 16 1 19 40 17 53 -1 89 23 53 37 -32 12 -25 18 10 8 27 -8 32 -6 36 10
3 11 12 20 19 20 8 0 14 6 14 14 0 14 26 14 93 1 11 -2 17 3 17 17 0 10 5 16
10 13 6 -4 15 7 21 24 9 25 18 31 60 40 28 6 61 11 76 11 18 0 24 4 19 15 -3
9 0 15 9 15 7 0 19 16 25 35 8 23 18 35 30 35 23 0 35 29 15 36 -8 4 -15 12
-15 20 0 8 -9 15 -20 15 -11 1 -28 2 -37 3 -10 0 -24 6 -31 13 -7 7 -22 13
-33 13 -11 0 -17 5 -14 10 4 6 10 8 15 5 5 -3 13 2 18 11 6 11 17 15 31 11 30
-7 29 31 -1 43 -13 5 -17 9 -10 9 6 1 12 11 12 24 0 34 13 47 43 42 24 -5 27
-2 27 21 0 18 6 28 20 31 25 7 22 39 -2 35 -9 -1 -19 2 -23 8 -3 6 0 7 9 4 11
-4 16 0 16 15 0 17 -6 21 -29 21 -27 0 -29 3 -28 34 2 28 5 33 22 30 11 -3 35
-2 53 1 26 5 32 11 32 30 0 16 -6 25 -15 25 -8 0 -15 7 -15 15 0 8 -3 14 -7
14 -37 -6 -63 3 -63 21 0 14 -7 20 -22 21 -13 0 -17 3 -10 6 6 2 12 13 12 24
0 12 7 19 20 19 12 0 17 5 14 14 -3 8 -1 17 5 21 6 3 11 13 11 21 0 10 -12 14
-45 14 -33 0 -45 4 -45 15 0 8 5 15 11 15 6 0 9 9 6 20 -3 11 -1 20 4 20 11 0
12 30 2 31 -5 0 -17 2 -28 5 -11 2 -41 7 -67 11 -27 3 -48 11 -48 17 0 6 -3
21 -6 34 -5 15 -3 22 6 20 7 -2 14 5 15 15 2 9 -3 17 -11 17 -8 0 -14 9 -14
19 0 21 -11 26 -75 36 -22 3 -56 8 -75 11 -195 29 -518 143 -645 227 -181 121
-346 277 -414 392 -84 142 -184 368 -206 465 -2 8 -11 44 -20 80 -9 36 -19 74
-21 85 -2 11 -6 31 -9 45 -36 184 -38 481 -2 600 68 230 239 571 393 784 24
34 52 72 61 86 43 59 180 219 227 263 266 251 673 430 1057 466 265 24 660
-29 864 -116 249 -106 509 -277 713 -467 164 -154 349 -437 471 -721 67 -157
94 -324 91 -575 -2 -239 -34 -433 -96 -588 -101 -250 -209 -407 -439 -637
-142 -141 -177 -164 -350 -225 -88 -31 -322 -94 -387 -105 -18 -3 -44 -7 -58
-10 -67 -12 -119 -17 -162 -17 -31 1 -48 -4 -52 -13 -7 -18 21 -34 46 -27 13
3 19 0 18 -9 -5 -33 0 -37 43 -33 23 3 48 7 56 10 8 2 40 7 70 9 l56 5 -36
-14 c-20 -8 -91 -24 -158 -37 -118 -22 -122 -24 -116 -46 5 -20 2 -23 -24 -23
-49 0 -61 -9 -61 -47 0 -20 -4 -32 -10 -28 -6 3 -13 -1 -17 -10 -3 -10 0 -21
7 -25 9 -6 8 -10 -6 -18 -15 -9 -17 -14 -8 -29 12 -19 -3 -43 -27 -43 -7 0 -9
-8 -5 -22 15 -50 15 -57 0 -51 -10 4 -14 -4 -14 -31 0 -20 5 -36 10 -36 13 0
13 -67 -1 -75 -6 -4 -8 -13 -5 -20 2 -7 -2 -16 -10 -19 -8 -3 -14 -15 -14 -26
0 -12 -4 -18 -11 -15 -5 4 -21 4 -35 1 -22 -6 -25 -10 -19 -37 4 -17 16 -40
26 -50 10 -10 19 -26 19 -34 0 -8 7 -15 15 -15 9 0 15 -10 15 -26 0 -14 4 -23
10 -19 6 3 10 2 10 -4 0 -5 5 -22 12 -38 12 -30 17 -56 18 -115 1 -30 5 -38
20 -38 10 0 21 -7 24 -16 5 -13 14 -15 41 -10 26 5 35 3 35 -7 0 -9 9 -12 30
-9 18 3 30 0 30 -7 0 -6 7 -11 15 -11 9 0 20 -10 25 -22 5 -13 9 -19 9 -15 1
5 8 2 16 -7 17 -17 20 -63 4 -68 -5 -2 -7 -11 -4 -21 4 -9 11 -14 16 -11 5 3
9 -2 9 -10 0 -9 6 -16 14 -16 8 0 16 -4 18 -10 2 -5 17 -6 40 -1 24 6 40 5 48
-3 6 -6 16 -11 23 -11 16 0 57 -64 57 -90 0 -35 33 -56 89 -59 28 -2 53 -5 56
-8 5 -5 58 -3 200 6 33 2 56 -2 67 -12 16 -13 18 -13 24 2 5 13 9 14 14 6 6
-9 41 0 131 33 68 25 149 53 179 63 217 69 482 212 688 371 115 88 140 111
272 243 228 228 454 545 602 845 81 164 188 458 227 628 6 26 16 66 21 90 6
23 13 53 15 67 3 14 12 63 21 110 9 47 17 92 19 100 2 8 6 38 10 65 4 28 8 61
10 75 23 162 23 565 0 689 -1 9 -6 36 -10 61 -23 139 -43 235 -70 325 -23 79
-88 271 -105 310 -4 11 -18 47 -30 80 -41 109 -177 378 -251 495 -174 278
-398 540 -634 745 -38 33 -79 68 -90 78 -52 48 -307 230 -386 276 -446 261
-740 372 -1264 475 -99 20 -193 38 -210 41 -16 2 -39 7 -50 9 -11 2 -49 7 -85
11 -36 4 -76 10 -90 12 -31 5 -452 10 -500 6z m-675 -827 c-44 -18 -127 -57
-185 -85 -58 -29 -100 -48 -95 -43 29 29 310 160 345 161 8 0 -21 -15 -65 -33z
m2696 -253 c13 -16 12 -17 -3 -4 -10 7 -18 15 -18 17 0 8 8 3 21 -13z m-1207
-49 c49 -7 60 -14 21 -14 -32 0 -105 19 -119 32 -5 4 5 3 24 -2 18 -5 52 -12
74 -16z m1052 -38 c10 -8 28 -23 39 -32 33 -26 -6 -4 -67 39 -32 22 -58 42
-58 44 0 6 62 -30 86 -51z m-3262 -5 c-10 -10 -21 -16 -24 -14 -3 3 4 11 14
19 28 20 33 17 10 -5z m2961 -28 c11 -7 17 -13 14 -13 -9 0 -69 31 -69 35 0 6
33 -7 55 -22z m-208 -49 c-5 -5 -160 46 -171 57 -6 5 32 -5 83 -22 51 -17 90
-33 88 -35z m867 -10 c17 -17 49 -50 71 -74 39 -42 39 -43 5 -14 -19 16 -62
58 -95 94 -58 62 -46 59 19 -6z m-2194 22 c0 -2 -11 -6 -25 -8 -13 -3 -22 -1
-19 3 5 9 44 13 44 5z m-1457 -38 c-9 -13 -53 -54 -98 -92 l-80 -69 91 92 c87
87 125 117 87 69z m1342 12 c-11 -5 -27 -9 -35 -9 -9 0 -8 4 5 9 11 5 27 9 35
9 9 0 8 -4 -5 -9z m242 4 c-3 -3 -12 -4 -19 -1 -8 3 -5 6 6 6 11 1 17 -2 13
-5z m706 -21 c-7 -2 -19 -2 -25 0 -7 3 -2 5 12 5 14 0 19 -2 13 -5z m77 -13
c8 -5 11 -10 5 -10 -5 0 -17 5 -25 10 -8 5 -10 10 -5 10 6 0 17 -5 25 -10z
m89 -26 c9 -9 -53 7 -63 17 -5 5 5 4 24 -1 18 -5 35 -12 39 -16z m1367 -36
c43 -45 113 -138 78 -103 -76 75 -156 166 -139 157 11 -6 38 -30 61 -54z
m-1301 14 c-3 -3 -11 0 -18 7 -9 10 -8 11 6 5 10 -3 15 -9 12 -12z m793 -95
c39 -27 72 -51 72 -54 0 -5 -9 0 -97 60 -40 27 -73 51 -73 54 0 6 13 -2 98
-60z m-2893 -107 c-10 -11 -23 -20 -29 -20 -6 1 0 10 13 20 30 26 39 26 16 0z
m3664 -94 c46 -62 84 -126 78 -133 -3 -2 -15 11 -28 29 -28 38 -99 158 -95
158 2 0 22 -24 45 -54z m-1049 -42 c0 -2 -9 0 -20 6 -11 6 -20 13 -20 16 0 2
9 0 20 -6 11 -6 20 -13 20 -16z m955 -144 c10 -11 16 -20 13 -20 -3 0 -13 9
-23 20 -10 11 -16 20 -13 20 3 0 13 -9 23 -20z m229 -76 c3 -8 2 -12 -4 -9 -6
3 -10 10 -10 16 0 14 7 11 14 -7z m-803 -108 c25 -46 18 -41 -31 23 -25 32
-28 40 -13 30 12 -7 31 -31 44 -53z m-28 -81 c36 -47 21 -33 -54 50 -35 39
-40 48 -15 25 21 -19 52 -53 69 -75z m-3227 1 c-24 -30 -63 -82 -86 -116 -22
-33 -43 -60 -46 -60 -7 0 77 121 130 186 22 29 42 50 44 49 2 -2 -17 -28 -42
-59z m-976 -76 c-6 -11 -13 -20 -16 -20 -2 0 0 9 6 20 6 11 13 20 16 20 2 0 0
-9 -6 -20z m571 -3 c-10 -9 -11 -8 -5 6 3 10 9 15 12 12 3 -3 0 -11 -7 -18z
m3904 -187 c52 -105 115 -252 115 -269 0 -2 -52 98 -115 223 -63 125 -115 230
-115 234 0 13 83 -122 115 -188z m-3925 150 c-6 -11 -13 -20 -16 -20 -2 0 0 9
6 20 6 11 13 20 16 20 2 0 0 -9 -6 -20z m-640 -371 c-12 -41 -23 -83 -26 -94
-20 -84 -32 -127 -33 -113 -2 41 66 295 76 284 2 -2 -6 -37 -17 -77z m4564 45
c3 -8 2 -12 -4 -9 -6 3 -10 10 -10 16 0 14 7 11 14 -7z m-4053 -281 c-12 -20
-14 -14 -5 12 4 9 9 14 11 11 3 -2 0 -13 -6 -23z m4366 -95 c-3 -7 -5 -2 -5
12 0 14 2 19 5 13 2 -7 2 -19 0 -25z m22 -142 c2 -66 -6 -35 -12 49 -4 60 -3
69 3 35 5 -25 9 -63 9 -84z m-4420 10 c-9 -8 -10 -7 -5 7 3 10 7 26 7 35 1 9
4 6 6 -7 3 -13 -1 -28 -8 -35z m4388 -311 c1 -19 -2 -35 -6 -35 -4 0 -8 16 -9
35 -2 19 1 35 5 35 4 0 9 -16 10 -35z m-4615 -50 c3 -14 1 -25 -3 -25 -5 0 -9
11 -9 25 0 14 2 25 4 25 2 0 6 -11 8 -25z m5 -102 c-3 -10 -5 -2 -5 17 0 19 2
27 5 18 2 -10 2 -26 0 -35z m512 -68 c7 -47 19 -107 27 -132 8 -25 14 -51 14
-56 0 -48 -47 128 -56 207 -3 28 -7 53 -10 58 -3 4 -1 8 4 8 5 0 14 -38 21
-85z m-44 -27 c4 -29 8 -60 10 -68 2 -8 8 -35 13 -60 5 -25 13 -54 17 -65 5
-16 5 -17 -4 -4 -20 31 -41 108 -49 182 -9 85 2 97 13 15z m4629 -112 c-3 -15
-8 -25 -11 -23 -2 3 -1 17 3 31 3 15 8 25 11 23 2 -3 1 -17 -3 -31z m-119 -73
c-27 -72 -37 -75 -13 -4 11 34 23 59 26 56 3 -2 -3 -26 -13 -52z m-4411 -29
c3 -8 2 -12 -4 -9 -6 3 -10 10 -10 16 0 14 7 11 14 -7z m4201 -197 c-8 -21
-18 -37 -20 -37 -3 0 2 16 10 36 8 20 15 39 15 42 0 3 2 3 5 0 3 -3 -2 -21
-10 -41z m149 -13 c-31 -75 -105 -226 -109 -222 -10 10 21 91 69 175 28 50 52
90 54 89 1 -2 -5 -20 -14 -42z m-4771 -149 c10 -22 23 -51 28 -65 l9 -25 -20
25 c-11 14 -29 49 -40 78 -21 55 -27 95 -8 52 7 -14 20 -43 31 -65z m507 25
c6 -11 8 -20 6 -20 -3 0 -10 9 -16 20 -6 11 -8 20 -6 20 3 0 10 -9 16 -20z
m4047 13 c-2 -5 -11 -25 -21 -45 -19 -43 -31 -51 -16 -12 14 35 30 64 36 64 3
0 3 -3 1 -7z m-4758 -65 c6 -18 7 -28 2 -23 -10 12 -25 55 -18 55 3 0 10 -15
16 -32z m4896 -88 c-9 -18 -19 -30 -21 -27 -3 2 3 18 13 35 23 40 29 33 8 -8z
m-4446 -198 c34 -46 57 -81 51 -77 -10 6 -108 136 -125 165 -15 28 11 -3 74
-88z m4031 -42 c-11 -22 -22 -40 -25 -40 -6 0 15 50 28 68 19 24 17 11 -3 -28z
m-4549 13 c13 -16 12 -17 -3 -4 -17 13 -22 21 -14 21 2 0 10 -8 17 -17z m5168
-104 c-51 -95 -81 -139 -57 -84 35 78 99 188 105 181 2 -2 -20 -45 -48 -97z
m-738 -57 c-10 -20 -43 -57 -72 -82 -56 -46 -51 -35 15 37 21 23 45 52 53 63
23 32 25 23 4 -18z m-3847 -75 c16 -15 25 -27 20 -27 -13 0 -83 69 -95 94 -8
14 -2 11 18 -9 15 -17 41 -43 57 -58z m3606 20 l-34 -32 30 36 c16 20 31 34
33 32 3 -2 -10 -18 -29 -36z m605 -77 c-55 -72 -66 -78 -22 -12 39 58 50 71
60 72 5 0 -13 -27 -38 -60z m-4290 0 c10 -11 14 -20 9 -20 -5 0 -15 9 -22 20
-7 11 -11 20 -9 20 2 0 12 -9 22 -20z m646 -17 c13 -16 12 -17 -3 -4 -10 7
-18 15 -18 17 0 8 8 3 21 -13z m-564 -70 c37 -36 47 -50 28 -38 -28 17 -104
95 -92 95 3 0 32 -26 64 -57z m1293 0 c41 -9 80 -16 87 -17 29 -5 21 -14 -9
-11 -70 7 -188 40 -188 52 0 3 8 2 18 -2 9 -3 51 -13 92 -22z m-1105 -73 c3
-6 -1 -7 -9 -4 -18 7 -21 14 -7 14 6 0 13 -4 16 -10z m3259 -77 c-33 -30 -118
-87 -103 -69 11 11 112 86 118 86 2 0 -4 -8 -15 -17z m-3286 -23 c17 -27 10
-25 -19 6 -13 14 -17 23 -9 19 9 -3 21 -14 28 -25z m2923 -9 c-31 -23 -90 -57
-76 -44 13 14 88 63 95 63 3 0 -6 -9 -19 -19z m1005 10 c-3 -5 -34 -32 -68
-61 l-63 -52 65 61 c64 60 76 69 66 52z m-2987 -37 c14 -12 -19 -1 -35 12 -18
14 -18 14 6 3 14 -6 27 -13 29 -15z m56 -14 c13 -5 14 -9 5 -9 -8 0 -24 4 -35
9 -13 5 -14 9 -5 9 8 0 24 -4 35 -9z m-1084 -30 c19 -16 71 -55 116 -87 46
-32 83 -61 83 -65 0 -4 -35 18 -77 48 -43 31 -95 68 -115 83 -20 14 -39 32
-42 39 -8 18 -2 15 35 -18z m3259 26 c0 -3 -15 -14 -32 -26 l-33 -22 30 26
c31 27 35 29 35 22z m-2989 -66 c28 -22 48 -40 45 -40 -11 0 -81 47 -95 64
-23 27 -3 18 50 -24z m2447 6 c-81 -41 -176 -70 -264 -82 -27 -3 -51 -8 -54
-9 -10 -6 -125 -17 -120 -12 3 3 17 8 30 10 28 6 182 46 335 87 125 34 131 35
73 6z m-2320 -233 c64 -36 87 -56 30 -27 -55 28 -168 96 -168 101 0 3 17 -5
38 -17 20 -13 65 -38 100 -57z m357 47 c3 -6 -1 -7 -9 -4 -18 7 -21 14 -7 14
6 0 13 -4 16 -10z m51 -26 c18 -14 18 -14 -6 -3 -31 14 -36 19 -24 19 6 0 19
-7 30 -16z m114 -60 c0 -2 -9 0 -20 6 -11 6 -20 13 -20 16 0 2 9 0 20 -6 11
-6 20 -13 20 -16z m1885 -13 c-44 -21 -97 -43 -116 -50 -50 -16 -189 -40 -184
-31 3 5 49 22 102 38 54 17 134 42 178 56 109 34 114 31 20 -13z m-2293 -11
c18 -11 29 -20 23 -20 -5 0 -23 9 -40 20 -39 26 -25 26 17 0z m3057 7 c-46
-38 -225 -135 -214 -117 4 7 114 74 190 116 17 9 36 10 24 1z m-2994 -45 c-3
-3 -11 0 -18 7 -9 10 -8 11 6 5 10 -3 15 -9 12 -12z m702 -38 c-3 -3 -12 -4
-19 -1 -8 3 -5 6 6 6 11 1 17 -2 13 -5z m-522 -176 c31 -29 -163 60 -207 95
-13 9 27 -6 87 -34 61 -29 115 -56 120 -61z"/>
</g>
</svg>
